# Blender 4.1.1
# www.blender.org
o dome-panel-mesh-zeroed
v -4.016282 1.534609 1.233156
v -4.016282 1.484610 1.233156
v 0.996218 0.037383 2.861816
v 0.971218 -0.005149 2.853693
v -0.918386 0.037383 -3.030731
v -0.933837 -0.005149 -3.009465
v -3.991760 1.494960 1.266907
v 0.931467 0.024400 2.866560
v -3.976605 1.494960 1.220264
v -0.933883 0.024400 -2.967683
v 0.946623 0.024400 2.819918
v 0.989231 0.000941 2.810433
v -0.893837 0.000941 -2.985055
v -4.016282 1.494960 1.191438
v -0.973559 0.024400 -2.996510
vn -0.0676 0.6221 0.7800
vn -0.3951 -0.7577 0.5194
vn 0.7209 0.6221 0.3053
vn 0.3719 -0.7577 0.5363
vn -0.3374 0.9350 0.1096
vn -0.8710 -0.4015 0.2830
vn 0.4038 0.6221 -0.6707
vn -0.0143 -0.7577 -0.6524
vn 0.9219 0.2456 -0.2996
vn 0.1862 -0.9806 -0.0605
vn -0.5131 0.6221 -0.5913
vn -0.6249 -0.7577 -0.1880
s 0
f 7//1 8//1 3//1 1//1
f 8//2 7//2 2//2 4//2
f 9//3 10//3 5//3 1//3
f 10//4 9//4 2//4 6//4
f 10//5 11//5 3//5 5//5
f 11//6 10//6 6//6 4//6
f 11//7 9//7 1//7 3//7
f 9//8 11//8 4//8 2//8
f 12//9 13//9 5//9 3//9
f 13//10 12//10 4//10 6//10
f 15//11 14//11 1//11 5//11
f 14//12 15//12 6//12 2//12
