# Blender 4.1.1
# www.blender.org
o dome-panel-mesh-zeroed
v -4.244662 1.534609 -0.002474
v -4.244662 1.484610 -0.002474
v 0.012605 0.037383 3.104513
v -0.008628 -0.005149 3.089016
v 0.025826 0.037383 -3.091264
v 0.004527 -0.005149 -3.075859
v -4.231855 1.494960 0.037230
v -0.050410 0.024400 3.088881
v -4.202944 1.494960 -0.002385
v -0.008513 0.024400 -3.036164
v -0.021498 0.024400 3.049266
v 0.021947 0.000941 3.053506
v 0.034951 0.000941 -3.040218
v -4.231686 1.494960 -0.042123
v -0.037255 0.024400 -3.075902
vn -0.3069 0.6221 0.7203
vn -0.5371 -0.7577 0.3708
vn 0.5902 0.6221 0.5144
vn 0.1867 -0.7577 0.6253
vn -0.3547 0.9350 -0.0008
vn -0.9158 -0.4015 -0.0020
vn 0.5924 0.6221 -0.5119
vn 0.1893 -0.7577 -0.6245
vn 0.9694 0.2456 0.0021
vn 0.1958 -0.9806 0.0004
vn -0.3038 0.6221 -0.7216
vn -0.5355 -0.7577 -0.3730
s 0
f 7//1 8//1 3//1 1//1
f 8//2 7//2 2//2 4//2
f 9//3 10//3 5//3 1//3
f 10//4 9//4 2//4 6//4
f 10//5 11//5 3//5 5//5
f 11//6 10//6 6//6 4//6
f 11//7 9//7 1//7 3//7
f 9//8 11//8 4//8 2//8
f 12//9 13//9 5//9 3//9
f 13//10 12//10 4//10 6//10
f 15//11 14//11 1//11 5//11
f 14//12 15//12 6//12 2//12
