# Blender 4.1.1
# www.blender.org
o dome-panel-mesh
v 0.000000 10.025000 0.000000
v 0.000000 9.975000 -0.000000
v 5.012500 8.527774 1.628660
v 4.987500 8.485242 1.620537
v 3.097896 8.527774 -4.263887
v 3.082445 8.485242 -4.242621
v 0.024521 9.985351 0.033751
v 4.947749 8.514791 1.633404
v 0.039676 9.985351 -0.012892
v 3.082399 8.514791 -4.200840
v 4.962904 8.514791 1.586762
v 5.005513 8.491331 1.577277
v 3.122445 8.491331 -4.218212
v 0.000000 9.985351 -0.041718
v 3.042722 8.514791 -4.229666
vn -0.0676 0.6221 0.7800
vn -0.3951 -0.7577 0.5194
vn 0.7209 0.6221 0.3053
vn 0.3719 -0.7577 0.5363
vn -0.3374 0.9350 0.1096
vn -0.8710 -0.4015 0.2830
vn 0.4038 0.6221 -0.6707
vn -0.0143 -0.7577 -0.6524
vn 0.9219 0.2456 -0.2996
vn 0.1862 -0.9806 -0.0605
vn -0.5131 0.6221 -0.5913
vn -0.6249 -0.7577 -0.1880
s 0
f 7//1 8//1 3//1 1//1
f 8//2 7//2 2//2 4//2
f 9//3 10//3 5//3 1//3
f 10//4 9//4 2//4 6//4
f 10//5 11//5 3//5 5//5
f 11//6 10//6 6//6 4//6
f 11//7 9//7 1//7 3//7
f 9//8 11//8 4//8 2//8
f 12//9 13//9 5//9 3//9
f 13//10 12//10 4//10 6//10
f 15//11 14//11 1//11 5//11
f 14//12 15//12 6//12 2//12
