# Blender 4.1.1
# www.blender.org
o dome-mesh
v -0.000000 8.527774 5.270454
v 0.000000 8.485242 5.244168
v 0.000000 4.483317 8.966633
v -0.000000 4.460956 8.921911
v 5.012500 8.527774 1.628660
v 4.987500 8.485242 1.620537
v 8.527774 4.483316 2.770842
v 8.485242 4.460956 2.757022
v 3.097896 8.527774 -4.263887
v 3.082445 8.485242 -4.242621
v 5.270454 4.483316 -7.254158
v 5.244168 4.460955 -7.217978
v -3.097896 8.527774 -4.263887
v -3.082445 8.485242 -4.242621
v -5.270454 4.483316 -7.254158
v -5.244168 4.460955 -7.217978
v -5.012500 8.527774 1.628660
v -4.987500 8.485242 1.620537
v -8.527774 4.483316 2.770842
v -8.485242 4.460956 2.757022
v 5.012500 5.270454 6.899114
v 4.987500 5.244168 6.864705
v 8.110395 5.270454 -2.635227
v 8.069944 5.244168 -2.622084
v 0.000000 5.270454 -8.527774
v 0.000000 5.244168 -8.485242
v -8.110395 5.270454 -2.635227
v -8.069944 5.244168 -2.622084
v -5.012500 5.270454 6.899114
v -4.987500 5.244168 6.864705
v 3.098070 0.005544 9.533628
v 3.082271 -0.005543 9.487502
v 8.109662 0.005544 5.892492
v 8.070678 -0.005543 5.863213
v 10.024375 0.005543 -0.000386
v 9.975625 -0.005543 0.000386
v 8.110116 0.005543 -5.891867
v 8.070224 -0.005543 -5.863838
v 3.097335 0.005543 -9.533866
v 3.083005 -0.005543 -9.487264
v -3.097335 0.005543 -9.533866
v -3.083005 -0.005543 -9.487264
v -8.110116 0.005543 -5.891867
v -8.070224 -0.005543 -5.863838
v -10.024375 0.005543 -0.000386
v -9.975625 -0.005543 0.000386
v -8.109662 0.005544 5.892492
v -8.070678 -0.005543 5.863213
v -3.098070 0.005544 9.533628
v -3.082271 -0.005543 9.487502
v 0.024521 8.468199 5.285726
v 4.947749 5.268892 6.885379
v 0.024521 4.495773 8.916076
v 4.976645 5.287664 6.849765
v 0.046709 8.491331 5.247931
v 4.976645 8.491331 1.666122
v 5.019447 8.468199 1.656700
v 8.472115 4.495772 2.778540
v 5.019447 5.268892 6.833288
v 5.034602 8.468199 1.610058
v 8.077324 5.268891 -2.577890
v 8.487269 4.495772 2.731897
v 8.052382 5.287664 -2.616378
v 5.005513 8.491331 1.577277
v 3.122445 8.491331 -4.218212
v 3.126710 8.468199 -4.261829
v 5.260576 4.495772 -7.198843
v 8.049938 5.268891 -2.662175
v 3.087034 8.468199 -4.290656
v 0.044311 5.268891 -8.478603
v 5.220900 4.495772 -7.227670
v 0.000000 5.287664 -8.466775
v 3.046869 8.491331 -4.273121
v -3.046869 8.491331 -4.273121
v -3.087034 8.468199 -4.290656
v -5.220900 4.495772 -7.227670
v -0.044311 5.268891 -8.478603
v -3.126710 8.468199 -4.261829
v -8.049938 5.268891 -2.662176
v -5.260576 4.495772 -7.198843
v -8.052382 5.287664 -2.616378
v -3.122445 8.491331 -4.218212
v -5.005513 8.491331 1.577277
v -5.034602 8.468199 1.610058
v -8.487269 4.495772 2.731897
v -8.077324 5.268891 -2.577890
v -5.019447 8.468199 1.656700
v -5.019447 5.268892 6.833288
v -8.472115 4.495772 2.778540
v -4.976645 5.287664 6.849765
v -4.976645 8.491331 1.666122
v -0.046709 8.491331 5.247931
v -0.024521 8.468199 5.285726
v -0.024521 4.495773 8.916076
v -4.947749 5.268892 6.885379
v 0.039676 4.454055 8.936934
v 4.962904 5.227173 6.906239
v 3.082399 0.050586 9.494533
v 5.034602 5.227173 6.854147
v 8.487269 4.454054 2.799399
v 8.077324 0.050586 5.865507
v 8.052382 0.024557 5.899510
v 3.122445 0.024557 9.481318
v 5.005513 5.208199 6.889498
v 8.511790 4.428271 2.765648
v 9.982351 0.024802 0.044155
v 8.101845 0.024803 5.831757
v 8.511790 4.454054 2.723930
v 8.101845 5.227173 -2.585857
v 9.982351 0.050585 0.002437
v 8.074459 5.227173 -2.670143
v 5.285098 4.454054 -7.206811
v 8.074459 0.050585 -5.869450
v 8.099091 0.024556 -5.835221
v 9.982159 0.024556 -0.039733
v 8.099091 5.208199 -2.631554
v 5.260576 4.428270 -7.240562
v 3.126710 0.024802 -9.480135
v 8.049938 0.024802 -5.903201
v 5.220900 4.454054 -7.253454
v 0.044311 5.227173 -8.504386
v 3.087034 0.050585 -9.493027
v -0.044311 5.227173 -8.504386
v -5.220900 4.454054 -7.253454
v -3.087034 0.050585 -9.493027
v -3.046869 0.024556 -9.505875
v 3.046869 0.024556 -9.505875
v 0.000000 5.208199 -8.515887
v -5.260576 4.428270 -7.240562
v -8.049938 0.024802 -5.903201
v -3.126710 0.024802 -9.480135
v -5.285098 4.454054 -7.206811
v -8.074459 5.227173 -2.670143
v -8.074459 0.050585 -5.869450
v -8.101845 5.227173 -2.585858
v -8.511790 4.454054 2.723930
v -9.982351 0.050585 0.002437
v -9.982159 0.024556 -0.039733
v -8.099091 0.024556 -5.835221
v -8.099091 5.208199 -2.631554
v -8.511790 4.428271 2.765648
v -8.101845 0.024803 5.831757
v -9.982351 0.024802 0.044155
v -8.487269 4.454054 2.799399
v -5.034602 5.227173 6.854147
v -8.077324 0.050586 5.865507
v -4.962904 5.227173 6.906239
v -0.039676 4.454055 8.936934
v -3.082399 0.050586 9.494533
v -3.122445 0.024557 9.481318
v -8.052382 0.024557 5.899510
v -5.005513 5.208199 6.889498
v -0.000000 4.428271 8.949826
v 3.042722 0.024803 9.507424
v -3.042722 0.024803 9.507424
vn -0.2085 0.1614 0.9646
vn -0.5383 -0.8423 -0.0278
vn -0.0676 0.9759 0.2076
vn -0.3951 0.1257 -0.9100
vn 0.7627 0.4363 0.4774
vn 0.6161 -0.5314 -0.5814
vn 0.5698 0.8113 -0.1311
vn 0.1151 -0.2969 -0.9480
vn -0.3007 0.8113 0.5014
vn -0.9371 -0.2969 -0.1835
vn 0.2184 0.4363 0.8729
vn -0.7434 -0.5314 0.4063
vn 0.2184 0.9759 -0.0001
vn -0.7434 0.1257 -0.6570
vn 0.9818 0.1615 0.0998
vn 0.1399 -0.8423 -0.5206
vn 0.8530 0.1615 0.4964
vn -0.1928 -0.8423 0.5034
vn 0.1766 0.9759 0.1285
vn -0.9875 0.1257 0.0946
vn 0.6897 0.4363 -0.5778
vn -0.3626 -0.5314 -0.7656
vn 0.0515 0.8113 -0.5824
vn -0.8660 -0.2969 -0.4024
vn 0.3839 0.8113 0.4409
vn -0.4641 -0.2969 0.8346
vn 0.8977 0.4363 0.0621
vn 0.1567 -0.5314 0.8325
vn 0.0674 0.9759 -0.2077
vn -0.8545 0.1257 0.5040
vn 0.3983 0.1615 -0.9029
vn -0.4518 -0.8423 -0.2939
vn 0.7357 0.1615 -0.6578
vn 0.4192 -0.8423 0.3389
vn 0.1767 0.9759 -0.1283
vn -0.2152 0.1257 0.9684
vn -0.3364 0.4363 -0.8345
vn -0.8402 -0.5314 0.1082
vn -0.5380 0.8113 -0.2289
vn -0.6503 -0.2969 0.6993
vn 0.5380 0.8113 -0.2289
vn 0.6503 -0.2969 0.6993
vn 0.3364 0.4363 -0.8345
vn 0.8402 -0.5314 0.1082
vn -0.1767 0.9759 -0.1283
vn 0.2152 0.1257 0.9684
vn -0.7357 0.1615 -0.6578
vn -0.4192 -0.8423 0.3389
vn -0.3983 0.1615 -0.9029
vn 0.4518 -0.8423 -0.2939
vn -0.0674 0.9759 -0.2077
vn 0.8545 0.1257 0.5040
vn -0.8977 0.4363 0.0621
vn -0.1567 -0.5314 0.8325
vn -0.3839 0.8113 0.4409
vn 0.4641 -0.2969 0.8346
vn -0.0514 0.8113 -0.5824
vn 0.8660 -0.2969 -0.4024
vn -0.6897 0.4363 -0.5778
vn 0.3626 -0.5314 -0.7656
vn -0.1766 0.9759 0.1285
vn 0.9875 0.1257 0.0946
vn -0.8530 0.1615 0.4964
vn 0.1928 -0.8423 0.5034
vn -0.9818 0.1615 0.0998
vn -0.1399 -0.8423 -0.5206
vn -0.2184 0.9759 -0.0001
vn 0.7434 0.1257 -0.6570
vn -0.2184 0.4363 0.8729
vn 0.7434 -0.5314 0.4063
vn 0.3007 0.8113 0.5014
vn 0.9371 -0.2969 -0.1835
vn -0.5698 0.8113 -0.1311
vn -0.1151 -0.2969 -0.9480
vn -0.7627 0.4363 0.4774
vn -0.6161 -0.5314 -0.5814
vn 0.0676 0.9759 0.2076
vn 0.3951 0.1257 -0.9100
vn 0.2085 0.1614 0.9646
vn 0.5383 -0.8423 -0.0278
vn 0.4038 -0.3217 0.8564
vn -0.0143 -0.9224 -0.3859
vn -0.3646 0.5192 0.7730
vn -0.8676 0.0688 -0.4925
vn 0.7358 0.5574 0.3846
vn 0.3550 0.1279 -0.9261
vn 0.6897 -0.3217 0.6487
vn -0.3626 -0.9224 -0.1329
vn 0.1384 0.5574 0.8186
vn -0.9905 0.1279 0.0514
vn 0.8478 0.5192 -0.1079
vn -0.2004 0.0688 -0.9773
vn 0.3303 0.8272 0.4546
vn -0.4999 0.5259 -0.6881
vn 0.9189 -0.1519 0.3641
vn 0.2180 -0.4985 -0.8390
vn 0.0623 -0.1519 0.9864
vn -0.8653 -0.4985 -0.0519
vn 0.6413 -0.2371 0.7298
vn -0.7326 -0.5176 0.4421
vn 0.5632 0.8058 0.1830
vn -0.7950 0.5488 -0.2583
vn 0.9477 -0.2371 -0.2135
vn -0.3328 -0.5176 -0.7883
vn 0.9393 -0.3217 -0.1194
vn -0.3715 -0.9224 -0.1056
vn 0.6225 0.5192 0.5857
vn -0.7365 0.0688 0.6729
vn 0.5931 0.5574 -0.5809
vn -0.7711 0.1279 -0.6238
vn 0.8301 -0.3217 -0.4555
vn -0.2384 -0.9224 0.3038
vn 0.8213 0.5574 0.1213
vn -0.2572 0.1279 0.9579
vn 0.1594 0.5192 -0.8397
vn -0.9914 0.0688 -0.1115
vn 0.5344 0.8272 -0.1736
vn -0.8089 0.5259 0.2628
vn 0.6302 -0.1519 -0.7614
vn -0.7306 -0.4985 -0.4666
vn 0.9574 -0.1519 0.2456
vn -0.3168 -0.4985 0.8069
vn 0.8922 -0.2371 -0.3844
vn 0.1941 -0.5176 0.8333
vn 0.3481 0.8058 -0.4791
vn -0.4914 0.5488 0.6763
vn 0.0899 -0.2371 -0.9673
vn -0.8525 -0.5176 0.0729
vn 0.1767 -0.3217 -0.9302
vn -0.2152 -0.9224 0.3206
vn 0.7493 0.5192 -0.4110
vn 0.4123 0.0688 0.9084
vn -0.3692 0.5574 -0.7436
vn -0.8315 0.1279 0.5406
vn -0.1767 -0.3217 -0.9302
vn 0.2152 -0.9224 0.3206
vn 0.3692 0.5574 -0.7436
vn 0.8315 0.1279 0.5406
vn -0.7493 0.5192 -0.4110
vn -0.4123 0.0688 0.9084
vn -0.0000 0.8272 -0.5619
vn -0.0000 0.5259 0.8505
vn -0.5294 -0.1519 -0.8347
vn -0.6696 -0.4985 0.5506
vn 0.5294 -0.1519 -0.8347
vn 0.6696 -0.4985 0.5506
vn -0.0899 -0.2371 -0.9673
vn 0.8525 -0.5176 0.0729
vn -0.3481 0.8058 -0.4791
vn 0.4914 0.5488 0.6763
vn -0.8922 -0.2371 -0.3844
vn -0.1941 -0.5176 0.8333
vn -0.8301 -0.3217 -0.4555
vn 0.2384 -0.9224 0.3038
vn -0.1594 0.5192 -0.8397
vn 0.9914 0.0688 -0.1115
vn -0.8213 0.5574 0.1213
vn 0.2572 0.1279 0.9579
vn -0.9393 -0.3217 -0.1194
vn 0.3715 -0.9224 -0.1056
vn -0.5931 0.5574 -0.5809
vn 0.7711 0.1279 -0.6238
vn -0.6225 0.5192 0.5857
vn 0.7365 0.0688 0.6729
vn -0.5344 0.8272 -0.1736
vn 0.8089 0.5259 0.2628
vn -0.9574 -0.1519 0.2456
vn 0.3168 -0.4985 0.8069
vn -0.6302 -0.1519 -0.7614
vn 0.7306 -0.4985 -0.4666
vn -0.9477 -0.2371 -0.2135
vn 0.3328 -0.5176 -0.7883
vn -0.5632 0.8058 0.1830
vn 0.7950 0.5488 -0.2583
vn -0.6413 -0.2371 0.7298
vn 0.7326 -0.5176 0.4421
vn -0.6897 -0.3217 0.6487
vn 0.3626 -0.9224 -0.1329
vn -0.8478 0.5192 -0.1079
vn 0.2004 0.0688 -0.9773
vn -0.1384 0.5574 0.8186
vn 0.9905 0.1279 0.0514
vn -0.4038 -0.3217 0.8564
vn 0.0143 -0.9224 -0.3859
vn -0.7358 0.5574 0.3846
vn -0.3550 0.1279 -0.9261
vn 0.3646 0.5192 0.7730
vn 0.8676 0.0688 -0.4925
vn -0.3303 0.8272 0.4546
vn 0.4999 0.5259 -0.6881
vn -0.0623 -0.1519 0.9864
vn 0.8653 -0.4985 -0.0519
vn -0.9189 -0.1519 0.3641
vn -0.2180 -0.4985 -0.8390
vn -0.4959 -0.2371 0.8354
vn -0.6468 -0.5176 -0.5601
vn -0.0000 0.8058 0.5922
vn -0.0000 0.5488 -0.8359
vn 0.4959 -0.2371 0.8354
vn 0.6468 -0.5176 -0.5601
s 0
f 51//1 52//1 21//1 1//1
f 52//2 51//2 2//2 22//2
f 52//3 53//3 3//3 21//3
f 53//4 52//4 22//4 4//4
f 53//5 51//5 1//5 3//5
f 51//6 53//6 4//6 2//6
f 54//7 55//7 1//7 21//7
f 55//8 54//8 22//8 2//8
f 56//9 54//9 21//9 5//9
f 54//10 56//10 6//10 22//10
f 57//11 58//11 7//11 5//11
f 58//12 57//12 6//12 8//12
f 58//13 59//13 21//13 7//13
f 59//14 58//14 8//14 22//14
f 59//15 57//15 5//15 21//15
f 57//16 59//16 22//16 6//16
f 60//17 61//17 23//17 5//17
f 61//18 60//18 6//18 24//18
f 61//19 62//19 7//19 23//19
f 62//20 61//20 24//20 8//20
f 62//21 60//21 5//21 7//21
f 60//22 62//22 8//22 6//22
f 63//23 64//23 5//23 23//23
f 64//24 63//24 24//24 6//24
f 65//25 63//25 23//25 9//25
f 63//26 65//26 10//26 24//26
f 66//27 67//27 11//27 9//27
f 67//28 66//28 10//28 12//28
f 67//29 68//29 23//29 11//29
f 68//30 67//30 12//30 24//30
f 68//31 66//31 9//31 23//31
f 66//32 68//32 24//32 10//32
f 69//33 70//33 25//33 9//33
f 70//34 69//34 10//34 26//34
f 70//35 71//35 11//35 25//35
f 71//36 70//36 26//36 12//36
f 71//37 69//37 9//37 11//37
f 69//38 71//38 12//38 10//38
f 72//39 73//39 9//39 25//39
f 73//40 72//40 26//40 10//40
f 74//41 72//41 25//41 13//41
f 72//42 74//42 14//42 26//42
f 75//43 76//43 15//43 13//43
f 76//44 75//44 14//44 16//44
f 76//45 77//45 25//45 15//45
f 77//46 76//46 16//46 26//46
f 77//47 75//47 13//47 25//47
f 75//48 77//48 26//48 14//48
f 78//49 79//49 27//49 13//49
f 79//50 78//50 14//50 28//50
f 79//51 80//51 15//51 27//51
f 80//52 79//52 28//52 16//52
f 80//53 78//53 13//53 15//53
f 78//54 80//54 16//54 14//54
f 81//55 82//55 13//55 27//55
f 82//56 81//56 28//56 14//56
f 83//57 81//57 27//57 17//57
f 81//58 83//58 18//58 28//58
f 84//59 85//59 19//59 17//59
f 85//60 84//60 18//60 20//60
f 85//61 86//61 27//61 19//61
f 86//62 85//62 20//62 28//62
f 86//63 84//63 17//63 27//63
f 84//64 86//64 28//64 18//64
f 87//65 88//65 29//65 17//65
f 88//66 87//66 18//66 30//66
f 88//67 89//67 19//67 29//67
f 89//68 88//68 30//68 20//68
f 89//69 87//69 17//69 19//69
f 87//70 89//70 20//70 18//70
f 90//71 91//71 17//71 29//71
f 91//72 90//72 30//72 18//72
f 92//73 90//73 29//73 1//73
f 90//74 92//74 2//74 30//74
f 93//75 94//75 3//75 1//75
f 94//76 93//76 2//76 4//76
f 94//77 95//77 29//77 3//77
f 95//78 94//78 4//78 30//78
f 95//79 93//79 1//79 29//79
f 93//80 95//80 30//80 2//80
f 96//81 97//81 21//81 3//81
f 97//82 96//82 4//82 22//82
f 97//83 98//83 31//83 21//83
f 98//84 97//84 22//84 32//84
f 98//85 96//85 3//85 31//85
f 96//86 98//86 32//86 4//86
f 99//87 100//87 7//87 21//87
f 100//88 99//88 22//88 8//88
f 100//89 101//89 33//89 7//89
f 101//90 100//90 8//90 34//90
f 101//91 99//91 21//91 33//91
f 99//92 101//92 34//92 22//92
f 102//93 103//93 31//93 33//93
f 103//94 102//94 34//94 32//94
f 103//95 104//95 21//95 31//95
f 104//96 103//96 32//96 22//96
f 104//97 102//97 33//97 21//97
f 102//98 104//98 22//98 34//98
f 105//99 106//99 35//99 7//99
f 106//100 105//100 8//100 36//100
f 106//101 107//101 33//101 35//101
f 107//102 106//102 36//102 34//102
f 107//103 105//103 7//103 33//103
f 105//104 107//104 34//104 8//104
f 108//105 109//105 23//105 7//105
f 109//106 108//106 8//106 24//106
f 109//107 110//107 35//107 23//107
f 110//108 109//108 24//108 36//108
f 110//109 108//109 7//109 35//109
f 108//110 110//110 36//110 8//110
f 111//111 112//111 11//111 23//111
f 112//112 111//112 24//112 12//112
f 112//113 113//113 37//113 11//113
f 113//114 112//114 12//114 38//114
f 113//115 111//115 23//115 37//115
f 111//116 113//116 38//116 24//116
f 114//117 115//117 35//117 37//117
f 115//118 114//118 38//118 36//118
f 115//119 116//119 23//119 35//119
f 116//120 115//120 36//120 24//120
f 116//121 114//121 37//121 23//121
f 114//122 116//122 24//122 38//122
f 117//123 118//123 39//123 11//123
f 118//124 117//124 12//124 40//124
f 118//125 119//125 37//125 39//125
f 119//126 118//126 40//126 38//126
f 119//127 117//127 11//127 37//127
f 117//128 119//128 38//128 12//128
f 120//129 121//129 25//129 11//129
f 121//130 120//130 12//130 26//130
f 121//131 122//131 39//131 25//131
f 122//132 121//132 26//132 40//132
f 122//133 120//133 11//133 39//133
f 120//134 122//134 40//134 12//134
f 123//135 124//135 15//135 25//135
f 124//136 123//136 26//136 16//136
f 124//137 125//137 41//137 15//137
f 125//138 124//138 16//138 42//138
f 125//139 123//139 25//139 41//139
f 123//140 125//140 42//140 26//140
f 126//141 127//141 39//141 41//141
f 127//142 126//142 42//142 40//142
f 127//143 128//143 25//143 39//143
f 128//144 127//144 40//144 26//144
f 128//145 126//145 41//145 25//145
f 126//146 128//146 26//146 42//146
f 129//147 130//147 43//147 15//147
f 130//148 129//148 16//148 44//148
f 130//149 131//149 41//149 43//149
f 131//150 130//150 44//150 42//150
f 131//151 129//151 15//151 41//151
f 129//152 131//152 42//152 16//152
f 132//153 133//153 27//153 15//153
f 133//154 132//154 16//154 28//154
f 133//155 134//155 43//155 27//155
f 134//156 133//156 28//156 44//156
f 134//157 132//157 15//157 43//157
f 132//158 134//158 44//158 16//158
f 135//159 136//159 19//159 27//159
f 136//160 135//160 28//160 20//160
f 136//161 137//161 45//161 19//161
f 137//162 136//162 20//162 46//162
f 137//163 135//163 27//163 45//163
f 135//164 137//164 46//164 28//164
f 138//165 139//165 43//165 45//165
f 139//166 138//166 46//166 44//166
f 139//167 140//167 27//167 43//167
f 140//168 139//168 44//168 28//168
f 140//169 138//169 45//169 27//169
f 138//170 140//170 28//170 46//170
f 141//171 142//171 47//171 19//171
f 142//172 141//172 20//172 48//172
f 142//173 143//173 45//173 47//173
f 143//174 142//174 48//174 46//174
f 143//175 141//175 19//175 45//175
f 141//176 143//176 46//176 20//176
f 144//177 145//177 29//177 19//177
f 145//178 144//178 20//178 30//178
f 145//179 146//179 47//179 29//179
f 146//180 145//180 30//180 48//180
f 146//181 144//181 19//181 47//181
f 144//182 146//182 48//182 20//182
f 147//183 148//183 3//183 29//183
f 148//184 147//184 30//184 4//184
f 148//185 149//185 49//185 3//185
f 149//186 148//186 4//186 50//186
f 149//187 147//187 29//187 49//187
f 147//188 149//188 50//188 30//188
f 150//189 151//189 47//189 49//189
f 151//190 150//190 50//190 48//190
f 151//191 152//191 29//191 47//191
f 152//192 151//192 48//192 30//192
f 152//193 150//193 49//193 29//193
f 150//194 152//194 30//194 50//194
f 153//195 154//195 31//195 3//195
f 154//196 153//196 4//196 32//196
f 154//197 155//197 49//197 31//197
f 155//198 154//198 32//198 50//198
f 155//199 153//199 3//199 49//199
f 153//200 155//200 50//200 4//200
