# Blender 4.1.1
# www.blender.org
o shower-mesh
v 0.000000 -0.100000 -0.952936
v 0.000000 0.100000 -1.000000
v 0.185909 -0.100000 -0.934625
v 0.195090 0.100000 -0.980785
v 0.364673 -0.100000 -0.880398
v 0.382683 0.100000 -0.923880
v 0.529423 -0.100000 -0.792337
v 0.555570 0.100000 -0.831470
v 0.673827 -0.100000 -0.673827
v 0.707107 0.100000 -0.707107
v 0.792337 -0.100000 -0.529423
v 0.831470 0.100000 -0.555570
v 0.880398 -0.100000 -0.364673
v 0.923880 0.100000 -0.382683
v 0.934625 -0.100000 -0.185909
v 0.980785 0.100000 -0.195090
v 0.952936 -0.100000 0.000000
v 1.000000 0.100000 0.000000
v 0.934625 -0.100000 0.185909
v 0.980785 0.100000 0.195090
v 0.880398 -0.100000 0.364673
v 0.923880 0.100000 0.382683
v 0.792337 -0.100000 0.529423
v 0.831470 0.100000 0.555570
v 0.673827 -0.100000 0.673827
v 0.707107 0.100000 0.707107
v 0.529423 -0.100000 0.792337
v 0.555570 0.100000 0.831470
v 0.364673 -0.100000 0.880398
v 0.382683 0.100000 0.923880
v 0.185909 -0.100000 0.934625
v 0.195090 0.100000 0.980785
v 0.000000 -0.100000 0.952936
v 0.000000 0.100000 1.000000
v -0.185909 -0.100000 0.934625
v -0.195090 0.100000 0.980785
v -0.364673 -0.100000 0.880398
v -0.382683 0.100000 0.923880
v -0.529423 -0.100000 0.792337
v -0.555570 0.100000 0.831470
v -0.673827 -0.100000 0.673827
v -0.707107 0.100000 0.707107
v -0.792337 -0.100000 0.529423
v -0.831470 0.100000 0.555570
v -0.880398 -0.100000 0.364673
v -0.923880 0.100000 0.382683
v -0.934625 -0.100000 0.185909
v -0.980785 0.100000 0.195090
v -0.952936 -0.100000 0.000000
v -1.000000 0.100000 0.000000
v -0.934625 -0.100000 -0.185909
v -0.980785 0.100000 -0.195090
v -0.880398 -0.100000 -0.364673
v -0.923880 0.100000 -0.382683
v -0.792337 -0.100000 -0.529423
v -0.831470 0.100000 -0.555570
v -0.673827 -0.100000 -0.673827
v -0.707107 0.100000 -0.707107
v -0.529423 -0.100000 -0.792337
v -0.555570 0.100000 -0.831470
v -0.364673 -0.100000 -0.880398
v -0.382683 0.100000 -0.923880
v -0.185909 -0.100000 -0.934625
v -0.195090 0.100000 -0.980785
v 0.000000 -0.100000 -1.000000
v 0.195090 -0.100000 -0.980785
v 0.382683 -0.100000 -0.923880
v 0.555570 -0.100000 -0.831470
v 0.707107 -0.100000 -0.707107
v 0.831470 -0.100000 -0.555570
v 0.923880 -0.100000 -0.382683
v 0.980785 -0.100000 -0.195090
v 1.000000 -0.100000 0.000000
v 0.980785 -0.100000 0.195090
v 0.923880 -0.100000 0.382683
v 0.831470 -0.100000 0.555570
v 0.707107 -0.100000 0.707107
v 0.555570 -0.100000 0.831470
v 0.382683 -0.100000 0.923880
v 0.195090 -0.100000 0.980785
v 0.000000 -0.100000 1.000000
v -0.195090 -0.100000 0.980785
v -0.382683 -0.100000 0.923880
v -0.555570 -0.100000 0.831470
v -0.707107 -0.100000 0.707107
v -0.831470 -0.100000 0.555570
v -0.923880 -0.100000 0.382683
v -0.980785 -0.100000 0.195090
v -1.000000 -0.100000 0.000000
v -0.980785 -0.100000 -0.195090
v -0.923880 -0.100000 -0.382683
v -0.831470 -0.100000 -0.555570
v -0.707107 -0.100000 -0.707107
v -0.555570 -0.100000 -0.831470
v -0.382683 -0.100000 -0.923880
v -0.195090 -0.100000 -0.980785
v 0.000000 -0.013130 -0.952936
v 0.185909 -0.013130 -0.934625
v 0.364673 -0.013130 -0.880398
v 0.529423 -0.013130 -0.792337
v 0.673827 -0.013130 -0.673827
v 0.792337 -0.013130 -0.529423
v 0.880398 -0.013130 -0.364673
v 0.934625 -0.013130 -0.185909
v 0.952936 -0.013130 0.000000
v 0.934625 -0.013130 0.185909
v 0.880398 -0.013130 0.364673
v 0.792337 -0.013130 0.529423
v 0.673827 -0.013130 0.673827
v 0.529423 -0.013130 0.792337
v 0.364673 -0.013130 0.880398
v 0.185909 -0.013130 0.934625
v 0.000000 -0.013130 0.952936
v -0.185909 -0.013130 0.934625
v -0.364673 -0.013130 0.880398
v -0.529423 -0.013130 0.792337
v -0.673827 -0.013130 0.673827
v -0.792337 -0.013130 0.529423
v -0.880398 -0.013130 0.364673
v -0.934625 -0.013130 0.185909
v -0.952936 -0.013130 0.000000
v -0.934625 -0.013130 -0.185909
v -0.880398 -0.013130 -0.364673
v -0.792337 -0.013130 -0.529423
v -0.673827 -0.013130 -0.673827
v -0.529423 -0.013130 -0.792337
v -0.364673 -0.013130 -0.880398
v -0.185909 -0.013130 -0.934625
v 0.000000 0.071255 -0.050000
v 0.000000 0.271255 -0.050000
v 0.009755 0.071255 -0.049039
v 0.009755 0.271255 -0.049039
v 0.019134 0.071255 -0.046194
v 0.019134 0.271255 -0.046194
v 0.027779 0.071255 -0.041573
v 0.027779 0.271255 -0.041573
v 0.035355 0.071255 -0.035355
v 0.035355 0.271255 -0.035355
v 0.041573 0.071255 -0.027779
v 0.041573 0.271255 -0.027779
v 0.046194 0.071255 -0.019134
v 0.046194 0.271255 -0.019134
v 0.049039 0.071255 -0.009755
v 0.049039 0.271255 -0.009755
v 0.050000 0.071255 0.000000
v 0.050000 0.271255 0.000000
v 0.049039 0.071255 0.009755
v 0.049039 0.271255 0.009755
v 0.046194 0.071255 0.019134
v 0.046194 0.271255 0.019134
v 0.041573 0.071255 0.027779
v 0.041573 0.271255 0.027779
v 0.035355 0.071255 0.035355
v 0.035355 0.271255 0.035355
v 0.027779 0.071255 0.041573
v 0.027779 0.271255 0.041573
v 0.019134 0.071255 0.046194
v 0.019134 0.271255 0.046194
v 0.009755 0.071255 0.049039
v 0.009755 0.271255 0.049039
v 0.000000 0.071255 0.050000
v 0.000000 0.271255 0.050000
v -0.009755 0.071255 0.049039
v -0.009755 0.271255 0.049039
v -0.019134 0.071255 0.046194
v -0.019134 0.271255 0.046194
v -0.027779 0.071255 0.041573
v -0.027779 0.271255 0.041573
v -0.035355 0.071255 0.035355
v -0.035355 0.271255 0.035355
v -0.041573 0.071255 0.027779
v -0.041573 0.271255 0.027779
v -0.046194 0.071255 0.019134
v -0.046194 0.271255 0.019134
v -0.049039 0.071255 0.009755
v -0.049039 0.271255 0.009755
v -0.050000 0.071255 0.000000
v -0.050000 0.271255 0.000000
v -0.049039 0.071255 -0.009755
v -0.049039 0.271255 -0.009755
v -0.046194 0.071255 -0.019134
v -0.046194 0.271255 -0.019134
v -0.041573 0.071255 -0.027779
v -0.041573 0.271255 -0.027779
v -0.035355 0.071255 -0.035355
v -0.035355 0.271255 -0.035355
v -0.027779 0.071255 -0.041573
v -0.027779 0.271255 -0.041573
v -0.019134 0.071255 -0.046194
v -0.019134 0.271255 -0.046194
v -0.009755 0.071255 -0.049039
v -0.009755 0.271255 -0.049039
vn 0.0980 -0.0000 -0.9952
vn 0.2903 -0.0000 -0.9569
vn 0.4714 -0.0000 -0.8819
vn 0.6344 -0.0000 -0.7730
vn 0.7730 -0.0000 -0.6344
vn 0.8819 -0.0000 -0.4714
vn 0.9569 -0.0000 -0.2903
vn 0.9952 -0.0000 -0.0980
vn 0.9952 -0.0000 0.0980
vn 0.9569 -0.0000 0.2903
vn 0.8819 -0.0000 0.4714
vn 0.7730 -0.0000 0.6344
vn 0.6344 -0.0000 0.7730
vn 0.4714 -0.0000 0.8819
vn 0.2903 -0.0000 0.9569
vn 0.0980 -0.0000 0.9952
vn -0.0980 -0.0000 0.9952
vn -0.2903 -0.0000 0.9569
vn -0.4714 -0.0000 0.8819
vn -0.6344 -0.0000 0.7730
vn -0.7730 -0.0000 0.6344
vn -0.8819 -0.0000 0.4714
vn -0.9569 -0.0000 0.2903
vn -0.9952 -0.0000 0.0980
vn -0.9952 -0.0000 -0.0980
vn -0.9569 -0.0000 -0.2903
vn -0.8819 -0.0000 -0.4714
vn -0.7730 -0.0000 -0.6344
vn -0.6344 -0.0000 -0.7730
vn -0.4714 -0.0000 -0.8819
vn -0.0000 1.0000 -0.0000
vn -0.2903 -0.0000 -0.9569
vn -0.0980 -0.0000 -0.9952
vn -0.0000 -1.0000 -0.0000
vt 1.000000 0.500000
vt 1.000000 1.000000
vt 0.968750 1.000000
vt 0.968750 0.500000
vt 0.937500 1.000000
vt 0.937500 0.500000
vt 0.906250 1.000000
vt 0.906250 0.500000
vt 0.875000 1.000000
vt 0.875000 0.500000
vt 0.843750 1.000000
vt 0.843750 0.500000
vt 0.812500 1.000000
vt 0.812500 0.500000
vt 0.781250 1.000000
vt 0.781250 0.500000
vt 0.750000 1.000000
vt 0.750000 0.500000
vt 0.718750 1.000000
vt 0.718750 0.500000
vt 0.687500 1.000000
vt 0.687500 0.500000
vt 0.656250 1.000000
vt 0.656250 0.500000
vt 0.625000 1.000000
vt 0.625000 0.500000
vt 0.593750 1.000000
vt 0.593750 0.500000
vt 0.562500 1.000000
vt 0.562500 0.500000
vt 0.531250 1.000000
vt 0.531250 0.500000
vt 0.500000 1.000000
vt 0.500000 0.500000
vt 0.468750 1.000000
vt 0.468750 0.500000
vt 0.437500 1.000000
vt 0.437500 0.500000
vt 0.406250 1.000000
vt 0.406250 0.500000
vt 0.375000 1.000000
vt 0.375000 0.500000
vt 0.343750 1.000000
vt 0.343750 0.500000
vt 0.312500 1.000000
vt 0.312500 0.500000
vt 0.281250 1.000000
vt 0.281250 0.500000
vt 0.250000 1.000000
vt 0.250000 0.500000
vt 0.218750 1.000000
vt 0.218750 0.500000
vt 0.187500 1.000000
vt 0.187500 0.500000
vt 0.156250 1.000000
vt 0.156250 0.500000
vt 0.125000 1.000000
vt 0.125000 0.500000
vt 0.093750 1.000000
vt 0.093750 0.500000
vt 0.062500 1.000000
vt 0.062500 0.500000
vt 0.296822 0.485388
vt 0.250000 0.490000
vt 0.203178 0.485388
vt 0.158156 0.471731
vt 0.116663 0.449553
vt 0.080294 0.419706
vt 0.050447 0.383337
vt 0.028269 0.341844
vt 0.014612 0.296822
vt 0.010000 0.250000
vt 0.014612 0.203178
vt 0.028269 0.158156
vt 0.050447 0.116663
vt 0.080294 0.080294
vt 0.116663 0.050447
vt 0.158156 0.028269
vt 0.203178 0.014612
vt 0.250000 0.010000
vt 0.296822 0.014612
vt 0.341844 0.028269
vt 0.383337 0.050447
vt 0.419706 0.080294
vt 0.449553 0.116663
vt 0.471731 0.158156
vt 0.485388 0.203178
vt 0.490000 0.250000
vt 0.485388 0.296822
vt 0.471731 0.341844
vt 0.449553 0.383337
vt 0.419706 0.419706
vt 0.383337 0.449553
vt 0.341844 0.471731
vt 0.031250 1.000000
vt 0.031250 0.500000
vt 0.000000 1.000000
vt 0.000000 0.500000
vt 0.837521 0.461295
vt 0.877061 0.440161
vt 0.794618 0.474310
vt 0.750000 0.478704
vt 0.750000 0.490000
vt 0.796822 0.485388
vt 0.841844 0.471731
vt 0.883337 0.449553
vt 0.911718 0.411718
vt 0.919706 0.419706
vt 0.940161 0.377061
vt 0.949553 0.383337
vt 0.961295 0.337521
vt 0.971731 0.341844
vt 0.974310 0.294618
vt 0.985388 0.296822
vt 0.978704 0.250000
vt 0.990000 0.250000
vt 0.974310 0.205382
vt 0.985388 0.203178
vt 0.961295 0.162479
vt 0.971731 0.158156
vt 0.940161 0.122939
vt 0.949553 0.116663
vt 0.911718 0.088281
vt 0.919706 0.080294
vt 0.877061 0.059839
vt 0.883337 0.050447
vt 0.837521 0.038705
vt 0.841844 0.028269
vt 0.794618 0.025690
vt 0.796822 0.014612
vt 0.750000 0.021295
vt 0.750000 0.010000
vt 0.705382 0.025690
vt 0.703178 0.014612
vt 0.662479 0.038705
vt 0.658156 0.028269
vt 0.622939 0.059839
vt 0.616663 0.050447
vt 0.588282 0.088281
vt 0.580294 0.080294
vt 0.559839 0.122939
vt 0.550447 0.116663
vt 0.538705 0.162479
vt 0.528269 0.158156
vt 0.525690 0.205382
vt 0.514612 0.203178
vt 0.521295 0.250000
vt 0.510000 0.250000
vt 0.525690 0.294618
vt 0.514612 0.296822
vt 0.538705 0.337521
vt 0.528269 0.341844
vt 0.559839 0.377061
vt 0.550447 0.383337
vt 0.588282 0.411719
vt 0.580294 0.419706
vt 0.622939 0.440161
vt 0.616663 0.449553
vt 0.662479 0.461295
vt 0.658156 0.471731
vt 0.705382 0.474310
vt 0.703178 0.485388
vt 0.116663 0.449553
vt 0.080294 0.419706
vt 0.050447 0.383337
vt 0.028269 0.341844
vt 0.014612 0.296822
vt 0.014612 0.203178
vt 0.028269 0.158156
vt 0.050447 0.116663
vt 0.080294 0.080294
vt 0.116663 0.050447
vt 0.158156 0.028269
vt 0.203178 0.014612
vt 0.296822 0.014612
vt 0.341844 0.028269
vt 0.383337 0.050447
vt 0.419706 0.080294
vt 0.449553 0.116663
vt 0.449553 0.383337
vt 0.383337 0.449553
vt 0.883337 0.449553
vt 0.949553 0.383337
vt 0.949553 0.116663
vt 0.919706 0.080294
vt 0.883337 0.050447
vt 0.841844 0.028269
vt 0.796822 0.014612
vt 0.703178 0.014612
vt 0.658156 0.028269
vt 0.616663 0.050447
vt 0.580294 0.080294
vt 0.550447 0.116663
vt 0.550447 0.383337
vt 0.616663 0.449553
s 0
f 65/1/1 2/2/1 4/3/1 66/4/1
f 66/4/2 4/3/2 6/5/2 67/6/2
f 67/6/3 6/5/3 8/7/3 68/8/3
f 68/8/4 8/7/4 10/9/4 69/10/4
f 69/10/5 10/9/5 12/11/5 70/12/5
f 70/12/6 12/11/6 14/13/6 71/14/6
f 71/14/7 14/13/7 16/15/7 72/16/7
f 72/16/8 16/15/8 18/17/8 73/18/8
f 73/18/9 18/17/9 20/19/9 74/20/9
f 74/20/10 20/19/10 22/21/10 75/22/10
f 75/22/11 22/21/11 24/23/11 76/24/11
f 76/24/12 24/23/12 26/25/12 77/26/12
f 77/26/13 26/25/13 28/27/13 78/28/13
f 78/28/14 28/27/14 30/29/14 79/30/14
f 79/30/15 30/29/15 32/31/15 80/32/15
f 80/32/16 32/31/16 34/33/16 81/34/16
f 81/34/17 34/33/17 36/35/17 82/36/17
f 82/36/18 36/35/18 38/37/18 83/38/18
f 83/38/19 38/37/19 40/39/19 84/40/19
f 84/40/20 40/39/20 42/41/20 85/42/20
f 85/42/21 42/41/21 44/43/21 86/44/21
f 86/44/22 44/43/22 46/45/22 87/46/22
f 87/46/23 46/45/23 48/47/23 88/48/23
f 88/48/24 48/47/24 50/49/24 89/50/24
f 89/50/25 50/49/25 52/51/25 90/52/25
f 90/52/26 52/51/26 54/53/26 91/54/26
f 91/54/27 54/53/27 56/55/27 92/56/27
f 92/56/28 56/55/28 58/57/28 93/58/28
f 93/58/29 58/57/29 60/59/29 94/60/29
f 94/60/30 60/59/30 62/61/30 95/62/30
f 4/63/31 2/64/31 64/65/31 62/66/31 60/67/31 58/68/31 56/69/31 54/70/31 52/71/31 50/72/31 48/73/31 46/74/31 44/75/31 42/76/31 40/77/31 38/78/31 36/79/31 34/80/31 32/81/31 30/82/31 28/83/31 26/84/31 24/85/31 22/86/31 20/87/31 18/88/31 16/89/31 14/90/31 12/91/31 10/92/31 8/93/31 6/94/31
f 95/62/32 62/61/32 64/95/32 96/96/32
f 96/96/33 64/95/33 2/97/33 65/98/33
f 5/99/19 7/100/19 100/100/19 99/99/19
f 3/101/34 1/102/34 65/103/34 66/104/34
f 5/99/34 3/101/34 66/104/34 67/105/34
f 7/100/34 5/99/34 67/105/34 68/106/34
f 9/107/34 7/100/34 68/106/34 69/108/34
f 11/109/34 9/107/34 69/108/34 70/110/34
f 13/111/34 11/109/34 70/110/34 71/112/34
f 15/113/34 13/111/34 71/112/34 72/114/34
f 17/115/34 15/113/34 72/114/34 73/116/34
f 19/117/34 17/115/34 73/116/34 74/118/34
f 21/119/34 19/117/34 74/118/34 75/120/34
f 23/121/34 21/119/34 75/120/34 76/122/34
f 25/123/34 23/121/34 76/122/34 77/124/34
f 27/125/34 25/123/34 77/124/34 78/126/34
f 29/127/34 27/125/34 78/126/34 79/128/34
f 31/129/34 29/127/34 79/128/34 80/130/34
f 33/131/34 31/129/34 80/130/34 81/132/34
f 35/133/34 33/131/34 81/132/34 82/134/34
f 37/135/34 35/133/34 82/134/34 83/136/34
f 39/137/34 37/135/34 83/136/34 84/138/34
f 41/139/34 39/137/34 84/138/34 85/140/34
f 43/141/34 41/139/34 85/140/34 86/142/34
f 45/143/34 43/141/34 86/142/34 87/144/34
f 47/145/34 45/143/34 87/144/34 88/146/34
f 49/147/34 47/145/34 88/146/34 89/148/34
f 51/149/34 49/147/34 89/148/34 90/150/34
f 53/151/34 51/149/34 90/150/34 91/152/34
f 55/153/34 53/151/34 91/152/34 92/154/34
f 57/155/34 55/153/34 92/154/34 93/156/34
f 59/157/34 57/155/34 93/156/34 94/158/34
f 61/159/34 59/157/34 94/158/34 95/160/34
f 63/161/34 61/159/34 95/160/34 96/162/34
f 1/102/34 63/161/34 96/162/34 65/103/34
f 97/102/34 98/101/34 99/99/34 100/100/34 101/107/34 102/109/34 103/111/34 104/113/34 105/115/34 106/117/34 107/119/34 108/121/34 109/123/34 110/125/34 111/127/34 112/129/34 113/131/34 114/133/34 115/135/34 116/137/34 117/139/34 118/141/34 119/143/34 120/145/34 121/147/34 122/149/34 123/151/34 124/153/34 125/155/34 126/157/34 127/159/34 128/161/34
f 59/157/14 61/159/14 127/159/14 126/157/14
f 33/131/1 35/133/1 114/133/1 113/131/1
f 7/100/20 9/107/20 101/107/20 100/100/20
f 61/159/15 63/161/15 128/161/15 127/159/15
f 35/133/2 37/135/2 115/135/2 114/133/2
f 9/107/21 11/109/21 102/109/21 101/107/21
f 63/161/16 1/102/16 97/102/16 128/161/16
f 37/135/3 39/137/3 116/137/3 115/135/3
f 11/109/22 13/111/22 103/111/22 102/109/22
f 39/137/4 41/139/4 117/139/4 116/137/4
f 13/111/23 15/113/23 104/113/23 103/111/23
f 41/139/5 43/141/5 118/141/5 117/139/5
f 15/113/24 17/115/24 105/115/24 104/113/24
f 43/141/6 45/143/6 119/143/6 118/141/6
f 17/115/25 19/117/25 106/117/25 105/115/25
f 45/143/7 47/145/7 120/145/7 119/143/7
f 19/117/26 21/119/26 107/119/26 106/117/26
f 47/145/8 49/147/8 121/147/8 120/145/8
f 21/119/27 23/121/27 108/121/27 107/119/27
f 49/147/9 51/149/9 122/149/9 121/147/9
f 23/121/28 25/123/28 109/123/28 108/121/28
f 51/149/10 53/151/10 123/151/10 122/149/10
f 25/123/29 27/125/29 110/125/29 109/123/29
f 53/151/11 55/153/11 124/153/11 123/151/11
f 27/125/30 29/127/30 111/127/30 110/125/30
f 1/102/17 3/101/17 98/101/17 97/102/17
f 55/153/12 57/155/12 125/155/12 124/153/12
f 29/127/32 31/129/32 112/129/32 111/127/32
f 3/101/18 5/99/18 99/99/18 98/101/18
f 57/155/13 59/157/13 126/157/13 125/155/13
f 31/129/33 33/131/33 113/131/33 112/129/33
f 129/1/1 130/2/1 132/3/1 131/4/1
f 131/4/2 132/3/2 134/5/2 133/6/2
f 133/6/3 134/5/3 136/7/3 135/8/3
f 135/8/4 136/7/4 138/9/4 137/10/4
f 137/10/5 138/9/5 140/11/5 139/12/5
f 139/12/6 140/11/6 142/13/6 141/14/6
f 141/14/7 142/13/7 144/15/7 143/16/7
f 143/16/8 144/15/8 146/17/8 145/18/8
f 145/18/9 146/17/9 148/19/9 147/20/9
f 147/20/10 148/19/10 150/21/10 149/22/10
f 149/22/11 150/21/11 152/23/11 151/24/11
f 151/24/12 152/23/12 154/25/12 153/26/12
f 153/26/13 154/25/13 156/27/13 155/28/13
f 155/28/14 156/27/14 158/29/14 157/30/14
f 157/30/15 158/29/15 160/31/15 159/32/15
f 159/32/16 160/31/16 162/33/16 161/34/16
f 161/34/17 162/33/17 164/35/17 163/36/17
f 163/36/18 164/35/18 166/37/18 165/38/18
f 165/38/19 166/37/19 168/39/19 167/40/19
f 167/40/20 168/39/20 170/41/20 169/42/20
f 169/42/21 170/41/21 172/43/21 171/44/21
f 171/44/22 172/43/22 174/45/22 173/46/22
f 173/46/23 174/45/23 176/47/23 175/48/23
f 175/48/24 176/47/24 178/49/24 177/50/24
f 177/50/25 178/49/25 180/51/25 179/52/25
f 179/52/26 180/51/26 182/53/26 181/54/26
f 181/54/27 182/53/27 184/55/27 183/56/27
f 183/56/28 184/55/28 186/57/28 185/58/28
f 185/58/29 186/57/29 188/59/29 187/60/29
f 187/60/30 188/59/30 190/61/30 189/62/30
f 132/63/31 130/64/31 192/65/31 190/66/31 188/163/31 186/164/31 184/165/31 182/166/31 180/167/31 178/72/31 176/168/31 174/169/31 172/170/31 170/171/31 168/172/31 166/173/31 164/174/31 162/80/31 160/175/31 158/176/31 156/177/31 154/178/31 152/179/31 150/86/31 148/87/31 146/88/31 144/89/31 142/90/31 140/180/31 138/92/31 136/181/31 134/94/31
f 189/62/32 190/61/32 192/95/32 191/96/32
f 191/96/33 192/95/33 130/97/33 129/98/33
f 129/103/34 131/104/34 133/105/34 135/182/34 137/108/34 139/183/34 141/112/34 143/114/34 145/116/34 147/118/34 149/120/34 151/184/34 153/185/34 155/186/34 157/187/34 159/188/34 161/132/34 163/189/34 165/190/34 167/191/34 169/192/34 171/193/34 173/144/34 175/146/34 177/148/34 179/150/34 181/152/34 183/194/34 185/156/34 187/195/34 189/160/34 191/162/34
